<?xml version="1.0" encoding="UTF-8"?>
<svg
  xmlns="http://www.w3.org/2000/svg"
  viewBox="0 0 480 520"
  width="480"
  height="520"
  aria-label="Zone d'intervention Kerelia — Nouvelle-Aquitaine"
>
  <rect width="480" height="520" fill="#000000"/>
  <!-- Fond : régions France hors Nouvelle-Aquitaine -->
  <path d="M0,0L480,0L480,520L0,520ZM318.7,261.4L316.9,261.4L316.1,256.6L314.9,255.3L309.1,257.5L306.4,256L305.5,257L305.4,260.4L304,261.7L296.9,262.6L295.8,261.6L293.3,263.2L291.4,261.6L289.6,261.7L288.6,257.4L291.5,256L291.1,252.1L291.6,248.8L290.2,247.6L287.9,248.2L287,246.9L282.8,245.6L282.4,242.4L281,239.8L277.6,236.8L276,237.8L273.9,240.6L271.6,237.8L268.2,239L266.6,237.7L264.5,239.6L261.9,237.3L259.2,235.9L258,233.9L256.1,233.8L250.4,238L247.7,237.3L245.8,239.7L243.6,243.7L245,246.5L242.4,248.2L240.6,247.6L236.8,248.4L234,251.9L233.9,253.8L236,258L237.8,257.6L240.8,259.9L243.7,265.1L243.4,268L245.2,274L241.9,280.2L240.4,280.2L238.4,282.1L240.1,285L242.7,287L243.5,289.1L241.3,293.3L243.2,295.3L242.5,303.9L239.4,302.9L237.9,306.5L235.2,308.5L232.7,311.9L233.3,315.7L231.6,318.5L229.5,320.1L231.2,322.7L228.6,324.2L229.6,328.9L232.5,333L231.7,336.4L232.9,338.6L232.6,340.4L237.9,338.8L239,340.1L243.5,339.5L244,337.5L245.9,335.5L246,333.2L247.3,332.4L247.3,329.9L251.9,325L253.3,327.5L255.9,328.2L257.5,332.3L259,332.9L258.7,335.1L259.3,337.6L260.6,339.2L262.9,333.3L262.8,331.6L264,329.8L264.6,327.3L265.8,326.3L267.3,328.2L270.8,325L273.7,323.2L275.2,324.1L275.4,326L276.9,329.3L278.6,329.7L281.4,328.8L282.8,326.7L284.2,329.2L286.5,328.8L288.8,331L291.2,334.5L292.6,339.2L294.6,341.2L296.5,346.6L298.3,347.8L298.2,349.9L300.2,352.6L301.8,352.8L306.1,355.6L308.6,351.8L314.5,351.5L316.5,353.2L319.8,354.3L319.6,351.7L324.2,351.9L325.6,356.1L327.8,354.6L329.3,354.5L334,351.9L335.6,353.2L338,351.6L337.3,355.2L340.5,356.1L341,355.2L345.7,356.3L345.7,358.3L349.8,360.3L351.4,359.3L352.4,356.5L354.7,357.4L356.2,356L355.6,352L353.4,349.4L349,349.4L347,348.1L346.6,344.9L348,342L352.4,342.9L353,339.5L351.9,339.2L353.4,335.8L353.4,333.6L355.9,334.1L358.2,333.3L358.5,330.7L360,328.4L362.3,328.2L363.2,325.5L365.9,323.7L367.2,324.4L369.3,322.1L373.4,322.4L375.2,321.2L377,322.1L376.8,317.8L375.5,317.3L374.7,314.8L371.2,314.7L371.7,310L375.4,309.1L377.6,311.8L380.7,311.8L380.4,310.2L383.6,308.3L386.1,308.5L387,307.2L390,306L392.9,307.3L394,305.7L396.1,304.9L396.6,303L400.4,301.9L402.2,300.1L401.1,296.7L402.7,295L403.2,292.9L400.6,291.6L400,289.9L398.2,289.9L396.5,288.5L395.5,282.7L390.4,279.9L389,278.3L388.5,275.7L388.9,272.9L392.3,272.1L394.8,270.6L396.2,268L394.7,264.5L392.4,262L391,262.2L389.9,260.1L387.5,258.6L386.8,255.1L388.5,251L385.7,248.9L385.7,245.9L383.3,245.4L376.2,246.1L375.1,247.7L372.2,249.6L370.1,248.2L368.5,249.4L367.5,252.9L369.6,255.5L367.6,256.5L364.3,260L361.7,259.7L358.8,260.2L358.6,257.7L360.8,255.5L363.8,254.7L362.9,253.1L364.9,248.9L361,246.7L358.8,249.4L356.4,253.6L354.6,254.8L350.3,255.2L349.8,252.9L347.5,251.5L344.1,255.2L341.8,255.6L341.7,253.1L338.1,251.6L337.8,249.8L334.8,247.2L332.8,246.2L330.9,244.2L327.1,245.9L325.1,244.6L322.9,244.6L321.7,248.3L321.7,250.2L319.5,257.3ZM328,349.5L328.8,347.3L331.1,346.4L334.2,348.5L331.2,352.6L328.1,352.4Z" fill="rgba(255,255,255,0.03)" stroke="rgba(255,255,255,0.10)" stroke-width="0.5" stroke-linejoin="round"/>
  <path d="M0,0L480,0L480,520L0,520ZM278.6,235.5L278.9,237.5L281,239.8L282.4,242.4L282.8,245.6L287,246.9L287.9,248.2L290.2,247.6L291.6,248.8L291.1,252.1L291.5,256L288.6,257.4L289.6,261.7L291.4,261.6L293.3,263.2L295.8,261.6L296.9,262.6L304,261.7L305.4,260.4L305.5,257L306.4,256L309.1,257.5L314.9,255.3L316.1,256.6L316.9,261.4L318.7,261.4L319.5,257.3L321.7,250.2L322.9,244.6L325.1,244.6L327.1,245.9L330.9,244.2L337.8,249.8L338.1,251.6L341.7,253.1L341.8,255.6L344.1,255.2L347.5,251.5L349.8,252.9L350.3,255.2L354.6,254.8L356.4,253.6L358.8,249.4L361.8,245.5L361.3,244.3L363.7,240.2L362.1,238.9L367.4,232.8L372.3,228.9L372,227L372.7,222.6L371.4,220.9L373.4,218.5L378,216.7L380.2,214.3L380.9,211.3L384.6,208.2L385.2,206.4L387.5,204.1L386.8,202L389,201L390,198L384.5,198.7L387.7,194L387.5,191.7L390.5,191.8L392.1,189.2L389.7,186.3L387.6,186.5L388.3,182.3L388,180.4L374.7,172.9L373,170.9L371.2,173.1L369.1,174.2L367.6,171.8L365.2,170.7L361.1,172.5L359.2,171.5L357.3,168.3L354.4,169.5L353.3,172L350.7,171.4L348.6,174.8L347.6,177.6L345.3,177.8L343.4,179.9L344.5,182.9L344.1,185.9L338.9,186.9L334.8,187.1L333.1,190.6L329.5,190.1L327.3,188.7L324.4,188.6L321.8,186.4L319.9,186.7L320.5,181.9L319.4,178.7L315.6,174.3L313.6,174.3L313.6,172.1L306.7,171.5L306,174.6L299.2,175.5L297.6,177.1L293.4,175.6L291.6,177.4L285.6,177.3L284.7,174.4L282,172.1L280.4,168.4L276.7,167.7L275,163.5L274.8,161.3L270.7,156.7L267.5,155.9L266.4,156.8L259.1,157L256.1,157.9L255.2,160.4L256.2,162.1L255,164.9L252.8,166.9L255.9,168.9L256.7,171.8L259.3,174.9L259.5,176.7L257,179.7L256.4,185.8L253.4,187.1L251.4,187L250.8,189L253,190.6L253.9,195L254.8,195.9L251.1,198.2L252.5,199.5L254,202.8L252.1,207.8L256,211.5L255.9,212.7L257.5,216.7L257.7,221.1L259.5,222.7L259.8,226.3L258.9,228.5L259.2,235.9L261.9,237.3L264.5,239.6L266.6,237.7L268.2,239L271.6,237.8L273.9,240.6L276,237.8Z" fill="rgba(255,255,255,0.03)" stroke="rgba(255,255,255,0.10)" stroke-width="0.5" stroke-linejoin="round"/>
  <path d="M0,0L480,0L480,520L0,520ZM92.3,148.8L92.3,147.7L90.6,145.1L88.3,145.3L88.2,146.4L87.3,146.6L87.4,147.7L85.7,147.3L84.3,144.7L82.6,145.2L83.5,143.6L82,143.4L79.9,144.7L78.5,144.2L77.6,144.3L77.3,145.6L76.7,146.2L74.9,146.7L71.8,150.3L70.5,149.8L70.3,151.5L69.2,149.8L69.1,149L67.5,147.8L67.4,147.1L66,146.5L65.9,143.6L64.3,142.6L64.2,141.8L62.3,140.3L62.8,138.7L62.2,138.2L60.1,137.9L59.6,137.1L60.3,135.3L58.6,135.2L57.9,133.4L57.2,132.9L54.2,134.4L53.7,132.8L52.5,134.1L49.9,134.5L48.2,135.1L47.9,135.8L44.9,134.3L43.3,134.5L43.5,135.5L42.5,135.8L41.8,137L42.9,138.2L42.7,139.1L41.7,139.5L42.2,141.3L41.7,141.9L40.7,141.8L37.9,140.8L36.9,139.8L35.3,140.1L34.3,139.5L32.9,140.6L32.8,141.9L33.1,143.6L31.6,142.8L30.7,141.3L29.8,142.2L29.4,140.3L29.5,138.8L28.6,138.7L26.4,139.7L26.3,140.4L24.6,139.9L22.4,140.3L20.5,141.8L19.3,141.8L18.6,141L16.9,140.4L15.3,141.3L14.2,141.4L12.7,142.7L11.6,142.2L10.1,142.6L8.2,144.9L5.9,144.8L5,145.6L3.8,146L2.6,147.9L3,149.8L1.8,152.3L2.4,152.7L2.8,154.3L2.1,155.3L2.3,156.4L3.9,156.6L5.4,155.4L7,156.4L10,155.6L11.2,154.7L14.7,154.4L13.1,155.9L13.1,156.5L14.2,157.5L15.2,157.4L15.6,156.4L17.6,156.7L17.2,158L19.5,158.6L19.8,159.3L18.7,159.9L17.3,158.9L15.3,159.8L13.9,159.8L13.3,159L12.4,158.9L11,159.3L10.5,158.7L9.3,158.6L9.7,157.2L8.5,157.3L8.9,158.9L7.7,159.1L7.1,159.9L8.2,160.6L8.8,161.6L9.2,163.5L9.9,164L10.8,161.8L12.6,161.7L15.4,163.3L17.2,164L18,165.9L18.1,166.9L17.5,168.4L16.8,169.1L15,168L13.4,168L10.8,168.9L9.3,168.7L8.8,169.2L7.8,168.9L6.4,169.5L5.1,169.4L3.4,169.7L3.8,171.4L7.1,172.2L8.1,173L8.6,172.4L10.2,173L11.8,174.1L13.6,176.6L14.4,178.8L14.7,181.6L13.7,182L13.8,183.2L15.4,183.3L17.2,183.7L18.9,183.7L20.3,183.2L20.3,181.8L20.8,181L22.5,180.4L24,180.5L24.9,181.5L26.8,181.1L26.6,179.7L27.6,179L29.4,181L29.6,182.3L31.3,184.2L32.5,184.6L33.9,184.6L34.7,183.9L36.2,185.2L38.2,185.8L41.4,186.1L42.3,187.9L43.8,189.7L44.7,189.3L46.8,189.2L49,189.5L49.7,190.7L51.4,192.4L52.1,189.8L53.1,189.1L54.3,189.7L51.7,191.4L51.6,192.6L52,193.5L53.2,194.4L53.8,195.7L53.9,197.2L53.3,198.6L53.4,200.4L54.4,199.8L53.9,198.1L54.3,196.3L55.4,196.5L57,195.9L59.4,197.1L60.4,196.7L59.6,195.5L60.3,195.1L61.5,195.5L62.6,195.2L63.5,194.2L65.8,194.3L68.6,195.8L67.4,196.9L67.2,198.1L66.4,198.3L65.4,197.8L63.6,197.9L62.4,198.3L63.3,199.4L63.4,200.2L64.3,200.7L67.3,199.8L68.7,200.4L69.4,199.3L70.3,199.3L71,198.1L72.9,199.7L74.1,199L76.7,200.5L74.7,202.5L75.3,203.2L76.2,202.3L77.4,201.8L78,202.6L79.5,202.7L80.9,202.3L80.9,201.3L81.5,199.9L83.2,200.9L84.1,200.2L85,201L86.1,200.9L86.1,199.6L88,199.1L88,196.1L88.6,194.9L88.2,194.4L90.2,192.5L91.1,192.5L92.5,191.6L93.4,191.9L96,190.9L99,191.3L99.7,190.9L102.4,190.7L103.3,190.1L104,188.2L105.2,187.5L107,187.3L108.9,186.5L108.6,185.1L109.3,184.9L111.7,185.3L112.4,186.7L116.3,187.8L117.4,184.6L118.3,183.5L118,182.4L118.7,182L119.4,178.7L120.1,178.6L121,177.5L122.2,177.9L123.8,177.3L124,176.6L123.4,175.4L123.9,173.7L123,172.6L122.7,169.7L122,168.5L122.2,167.2L121.4,164L121.8,162.9L123.3,161L122.8,160L123,158.4L122.2,156.7L122.1,155.8L122.7,154.2L122.3,153.2L122.6,152.2L119.4,151L117.1,150.7L116,150.9L115.8,152L114.2,152.6L113.7,153.8L112.5,154.6L110.9,154.3L110.1,153L109,152.9L108.8,152L107.6,149.9L108.1,149.1L107.3,148.1L107.5,147.5L106.5,146.2L103.5,146.9L99.9,147.1L97.7,146.5L96.8,144.9L97.1,144L97.9,143.4L97.5,142.4L94.4,143.1L93.1,143.2L92.8,144.2L91.8,145.3L93.4,149.1ZM0,0L480,0L480,520L0,520ZM0,0L480,0L480,520L0,520ZM44.6,193.4L44.9,192.8L42.6,191.7L41.7,192.1L43.3,193.3ZM0,0L480,0L480,520L0,520ZM50.1,208.1L50.6,209.6L52.1,209.2L53.4,210L55.4,210.1L55.8,209.1L53.1,207.7L52.7,206.3L51.7,206.2L50.3,205.4L49.3,206.2Z" fill="rgba(255,255,255,0.03)" stroke="rgba(255,255,255,0.10)" stroke-width="0.5" stroke-linejoin="round"/>
  <path d="M0,0L480,0L480,520L0,520ZM252,199L251.1,198.2L254.8,195.9L253.9,195L253,190.6L250.8,189L251.4,187L253.4,187.1L256.4,185.8L257,179.7L259.5,176.7L259.3,174.9L256.7,171.8L255.9,168.9L253.4,167.4L250.6,167.9L248.2,167.4L245.3,169.7L243.2,169L237.4,169.3L239.3,166.4L237.5,163.5L236,163.3L235.2,160.7L231.8,161.1L228.9,159.6L228,161.1L223.5,162.5L220.9,161.4L221.7,158.8L220.1,155.7L217.9,155.1L215,152.7L215,149.6L212.2,148.1L208,142.4L209.6,140.2L207.9,138.1L208.4,136.9L206.6,131.7L204.1,131L204.1,134.2L202.4,134.8L200.8,137L201.5,138.3L199,139.4L194.7,139.4L190,141.5L185.2,143L183.3,144.7L183.7,147.3L187.6,150.2L188.5,151.5L187.6,154.6L187.8,157.6L185.9,159.7L182.7,160.5L182.2,161.8L184.2,166.7L183.3,167.9L185,170.7L184.7,173.6L183.4,173.6L184,177.8L185,179.9L182.1,182L182.6,184.8L181,187L177.6,189.5L176.8,193.2L172.2,194.9L169.7,198.3L167.8,197L164.9,196.5L163.8,199.7L164.5,201.6L161.8,209.7L159.5,214L159,218.1L159.7,220L163.9,221.6L167.1,223.4L167.6,229.1L169.4,228.5L171.8,229.5L173.4,228.3L177.1,228.1L176.4,225.8L180.3,227.3L180.7,230.7L184.2,234.4L184.5,236.3L187.8,239.3L187.2,244.1L187.9,245.6L191.6,248.5L194.3,248.6L195.7,249.9L195.9,252.7L198.3,256.7L201.1,256.4L202.9,255L204.7,256.9L206.6,256.2L208.4,253.6L212.6,255.3L213.9,253.9L215.4,255.2L217.7,252L218.7,253.3L224.3,253L227,253.5L233.8,253.1L234.7,250.6L236.8,248.4L240.6,247.6L242.4,248.2L245,246.5L243.6,243.7L245.8,239.7L247.7,237.3L250.4,238L256.1,233.8L258,233.9L259.4,232.6L258.9,228.5L259.8,226.3L259.5,222.7L257.7,221.1L257.5,216.7L255.9,212.7L256,211.5L252.1,207.8L254,202.8Z" fill="rgba(255,255,255,0.03)" stroke="rgba(255,255,255,0.10)" stroke-width="0.5" stroke-linejoin="round"/>
  <path d="M0,0L480,0L480,520L0,520ZM290.3,78L291.2,80.6L290.2,85.5L291.3,87.9L287.8,93.2L284.7,94.7L285.8,96.1L286.5,99.4L285.4,100.3L285.6,107.5L280.2,105.5L279.9,108.6L278.2,108L273.3,110.5L273.8,112.8L275.5,116.8L273,118.4L272.7,120L274.5,123.9L273.3,127.4L270.5,130.2L269.3,134.5L267.9,135.2L266.6,137.8L269,138.8L268.2,142L270.3,145.2L267.6,148.8L268.4,150.9L266.9,151.6L268.1,154.7L267.9,156.5L270.7,156.7L274.8,161.3L275,163.5L276.7,167.7L280.4,168.4L282,172.1L284.7,174.4L285.6,177.3L291.6,177.4L293.4,175.6L297.6,177.1L299.2,175.5L306,174.6L306.7,171.5L313.6,172.1L313.6,174.3L315.6,174.3L319.4,178.7L320.5,181.9L319.9,186.7L321.8,186.4L324.4,188.6L327.3,188.7L329.5,190.1L333.1,190.6L334.8,187.1L338.9,186.9L344.1,185.9L344.5,182.9L343.4,179.9L345.3,177.8L347.6,177.6L348.6,174.8L350.7,171.4L353.3,172L354.4,169.5L357.3,168.3L359.2,171.5L361.1,172.5L362.3,171.4L365.2,170.7L367.6,171.8L369.1,174.2L371.2,173.1L373,170.9L374.7,172.9L388,180.4L388.3,182.3L387.6,186.5L389.7,186.3L394.2,191.4L393.7,193.7L396.5,194.4L399.2,193.3L400.8,193.6L404.6,190.1L404.2,187.8L406.7,186L405.8,183.3L404.2,182L403.8,180L404.7,178.1L403.9,175.9L404.3,171.3L406,166.6L404,163.8L403.9,159.5L406.3,154.2L407.1,150L408.3,148.5L407.7,145.2L408.3,141.2L409.4,139.3L409,135.9L409.9,133.4L411.4,132.2L414.6,127.1L417.5,123.7L417.9,121.1L419.7,116.9L415.5,115.4L411,112.8L408.8,114.2L406.4,112.9L405.6,113.9L397.8,112.2L394.4,108.3L392.2,109L390.2,112L388.6,111.4L385.9,112.1L384.7,111.2L382.2,111.7L380.9,109.3L377.8,107.8L375.4,111.6L371.3,110.1L369.6,105.7L366,102.7L366.6,101L365.5,99.3L362.4,97.2L360.1,97.5L356.7,96.8L355,95.6L353,95.8L351.5,97.7L346.8,98.5L345.6,96.8L343.4,97.1L342.2,95.1L337.9,95.5L336.6,94.9L334.6,96.6L331,97.9L330,97.2L329.1,93.3L326.6,91.8L323.8,88.9L320.5,89.2L317.3,86.1L313.6,84.3L310.5,84.7L310.1,82L311.1,79.2L309.8,77.5L307.9,77L309.2,72.7L309.3,69.9L310.7,68L308.3,67L304.7,70.5L304.5,75.1L301.2,76.1L299.1,78.1L297.1,78.6L292.7,77.3Z" fill="rgba(255,255,255,0.03)" stroke="rgba(255,255,255,0.10)" stroke-width="0.5" stroke-linejoin="round"/>
  <path d="M0,0L480,0L480,520L0,520ZM287.4,77.1L287.1,75.2L290,72.5L288.8,69.4L287.3,68.3L287.4,66.2L288.7,62.7L286,61.6L282.8,58.8L279.3,60.4L277.5,59.4L273.9,59.7L271.9,60.5L271.5,55.4L269.5,52.6L264.5,52.4L262.8,52.9L259.4,51.6L258.9,47.8L257.9,46.1L258.5,44.3L254.6,38.9L252,39.5L248.2,41.4L247.5,43.9L245.5,42.6L243.6,42.5L241.3,38.3L238.7,38.4L237.7,33.5L238.3,32L236.6,28.6L235.5,25L231.8,26.7L229.7,26.6L226.8,27.5L222.2,29.5L216.3,30.6L212.1,32.2L210.1,33.5L208.5,35.5L206.1,36.4L206.9,40.3L206.6,43.1L205.6,44.8L206.1,47.7L206.4,52.9L205.3,65.2L207,66.5L208,68.5L205.7,68.5L203.5,71L202.8,73.7L202.9,77.3L204.9,78.6L207.4,81.5L210,83L212,88.3L213.6,90.7L212.2,91.2L211.4,93.2L211.7,97.3L211.1,98.6L212.7,101.5L211.7,103.1L213.6,104.7L211.7,107.9L213.3,109.9L214.3,115.4L211.7,114.9L213.3,119.3L214.6,118.7L217.4,119.8L223.4,117.6L224.7,118.4L228.1,118.6L229.2,119.9L231.1,118.3L232.2,119.4L236.2,120.6L238.2,122.2L240.3,123L241.4,122L243.8,123.8L245.4,123.9L247.1,122L249.1,123.3L250.1,122.5L254.1,122.4L255.3,120.9L258.5,121.5L259.3,124.1L258.5,125.2L263.2,128.7L264.1,130.6L267.9,132.8L269.6,132.3L270.5,130.2L273.3,127.4L274.5,123.9L272.7,120L273,118.4L275.5,116.8L273.8,112.8L273.3,110.5L278.2,108L279.9,108.6L280.2,105.5L282.2,105.7L283.2,106.8L285.6,107.5L285.4,100.3L286.5,99.4L285.8,96.1L284.7,94.7L287.8,93.2L291.3,87.9L290.2,85.5L291.1,82.9L291.2,80.6L290,80.2L290.3,78Z" fill="rgba(255,255,255,0.03)" stroke="rgba(255,255,255,0.10)" stroke-width="0.5" stroke-linejoin="round"/>
  <path d="M0,0L480,0L480,520L0,520ZM240.1,123.2L236.2,120.6L232.2,119.4L231.1,118.3L229.2,119.9L228.1,118.6L224.7,118.4L223.4,117.6L217.4,119.8L214.6,118.7L213.3,119.3L212.4,116.6L210.7,117.5L210.2,121.4L209.2,123.7L203.5,125.7L206.6,131.7L208.4,136.9L207.9,138.1L209.6,140.2L208,142.4L208.9,144.1L212.2,148.1L215,149.6L215,152.7L217.9,155.1L220.1,155.7L221.7,158.8L220.9,161.4L223.5,162.5L228,161.1L228.9,159.6L231.8,161.1L235.2,160.7L236,163.3L237.5,163.5L239.3,166.4L237.4,169.3L243.2,169L245.3,169.7L248.2,167.4L248.5,169.2L250.6,167.9L252.8,167.5L255,164.9L256.2,162.1L255.2,160.4L256.1,157.9L259.1,157L261,157.4L263.2,156.6L266.4,156.8L267.9,155.8L266.9,151.6L268.4,150.9L267.6,148.8L270.3,145.2L268.2,142L269.2,141.2L269,138.8L267.7,136.7L267.9,132.8L264.1,130.6L263.2,128.7L258.5,125.2L259.3,124.1L258.5,121.5L255.3,120.9L254.1,122.4L250.1,122.5L249.1,123.3L247.1,122L245.4,123.9L243.8,123.8L241.4,122Z" fill="rgba(255,255,255,0.03)" stroke="rgba(255,255,255,0.10)" stroke-width="0.5" stroke-linejoin="round"/>
  <path d="M0,0L480,0L480,520L0,520ZM121.6,110.8L120.2,110.2L119.6,107.4L117.4,104.6L115.7,101.2L115.9,100L118.3,97.7L116.8,94.1L113.9,93.5L111.8,93.8L109,95.8L105.8,96.4L102.7,94.6L99.4,93.9L98.4,92.7L95.8,92.2L95.6,94.7L98.3,95.9L98.8,99.6L97.3,102L98.5,102.9L99.2,108.1L102.7,111.9L104.9,117.1L105.9,118.3L106.3,121.3L105.7,124.1L106.1,126.8L107.2,127.8L106.5,134.4L105.7,135.9L106.7,137.4L106.5,140L107.9,141.1L108.6,143L112.4,145.4L109.5,146.6L106.7,146.8L108.1,149.1L108.8,152L110.9,154.3L112.5,154.6L116,150.9L119.4,151L124.7,153.2L126.6,152L129.8,152.8L132,154.4L139.4,154L140.7,152.4L143.2,152.1L145.7,153.2L146.8,151.7L148.4,151.9L150.3,149.8L152.5,151.5L152.6,155.1L155.5,155.1L155.3,158.3L157.9,158.7L160.5,157.2L161.9,155.1L164.1,154.1L166.9,153.8L168.7,154.8L169.6,160.9L172.4,162.3L175.5,165.2L179.4,164.7L181.9,168.4L184.2,166.7L182.2,161.8L182.7,160.5L185.9,159.7L187.8,157.6L187.6,154.6L188.5,151.5L187.6,150.2L184.7,148.6L183.7,147.3L183.3,144.7L185.2,143L188.2,141.6L190,141.5L194.7,139.4L199,139.4L201.5,138.3L200.8,137L202.4,134.8L204.1,134.2L204.1,131L205.3,129L203.5,125.7L205.6,124.7L209.2,123.7L210.2,121.4L210.7,117.5L211.7,114.9L214.3,115.4L214.7,114.5L213.5,112.1L213.3,109.9L211.7,107.9L213.6,104.7L211.7,103.1L212.7,101.5L211.1,98.6L211.7,97.3L211.4,93.2L212.2,91.2L213.6,90.7L212,88.3L210,83L207.4,81.5L204.9,78.6L200.3,76L195.1,80.5L192.1,82.4L189.3,83.4L186.6,83.9L182.1,85.5L179.6,85.6L175.3,86.8L167.5,92.1L163.7,93.5L162.4,94.9L162.1,96.7L159.4,102.8L161.1,105.8L164.3,107.5L160.8,109.1L157.2,112.5L153,114.2L150,114.6L144,112L139.6,111.4L138.1,111.7L130.4,110.6L127.8,109.1L123.2,109.1Z" fill="rgba(255,255,255,0.03)" stroke="rgba(255,255,255,0.10)" stroke-width="0.5" stroke-linejoin="round"/>
  <path d="M0,0L480,0L480,520L0,520ZM221.6,441.6L219.7,442.9L219.5,445.1L222.3,445.7L227.4,447.8L228.5,451.2L230,452.2L233.6,450.8L234.1,449.2L236.9,448.9L238.7,447.8L244.4,449.9L247,452.3L249.2,452.6L250.5,451.4L254,452L253.2,449.8L255.3,448.1L258.3,448.2L259.7,446.1L262.6,446.2L263.6,445L267.2,445.9L268.7,447.4L271.8,446.8L270.4,443L267.4,442L266.4,436.9L266.3,427.4L266.8,423.5L266.1,422.8L266.8,418.4L268.5,414.3L270.3,411.5L273.5,407.8L276.5,405.6L279.3,404.6L282.1,405.4L285.2,401.2L287.4,399.2L291.9,396.7L293.8,394.4L299.1,390.9L302.4,390.6L303.1,392.8L304.9,394.5L307.3,395L307.5,393L313,389.8L313.8,386.8L315.7,382.8L317.4,382.3L319.5,383.2L321.2,378.4L320.7,374.3L322.4,373.4L326.5,369L327.3,366.9L324,363.3L322.3,362.6L322.6,358.5L319.3,354L316.5,353.2L314.5,351.5L312.7,352L312.4,354.4L310.6,353.6L310.6,351.4L308.6,351.8L306.1,355.6L301.8,352.8L300.2,352.6L298.2,349.9L298.3,347.8L296.5,346.6L294.6,341.2L292.6,339.2L291.2,334.5L288.8,331L286.5,328.8L284.2,329.2L282.8,326.7L281.4,328.8L278.6,329.7L276.9,329.3L275.4,326L275.2,324.1L273.7,323.2L270.8,325L267.3,328.2L265.8,326.3L264.6,327.3L264,329.8L262.8,331.6L262.9,333.3L260.6,339.2L259.3,337.6L258.7,335.1L259,332.9L257.5,332.3L255.9,328.2L253.3,327.5L251.9,325L247.3,329.9L247.3,332.4L246,333.2L245.9,335.5L244,337.5L243.5,339.5L239,340.1L237.9,338.8L232.6,340.4L232.9,338.6L231.7,336.4L232.5,333L229.6,328.9L230.1,327.2L227.9,323.6L224.7,325.2L223.3,324L220.3,326.6L217.7,325.2L214.1,321.8L210.3,321L205.9,323L207.1,327.4L207,329.4L202.3,333.2L203.1,334.8L202.3,336.8L199.7,338.8L197.1,339.6L197.3,341.1L195.3,343.4L195.6,344.4L191.4,345.7L192.6,347.7L193.9,354.7L190.4,354.7L189.3,353.6L187.7,357.1L190.5,359L187.6,366.3L185.9,365.4L183.8,367.2L183.1,369.5L180.5,371.3L178.3,368.7L176.7,369.9L173.3,369.9L172.7,371.2L168.2,372.3L164.7,371.5L163.1,372.8L160.2,373.4L159.2,374.5L159.6,377.3L158.3,377.5L155.6,374.5L153.6,376.2L151,375.7L150.3,382L149.4,382.9L150.3,385.4L148.3,386.9L148.6,393L150.9,392.3L153.8,393L155.8,396.4L156.6,399.9L157.5,400.8L155.6,406.8L156.6,408.3L154.6,410.5L154.8,412.8L153,412.7L151,416.1L150.4,418.9L146.7,421.8L147.2,424.5L145.5,426.1L146.2,429.2L150.8,432L151.7,431.6L154.9,436.4L156.8,436.9L161.2,435.7L163.5,434.4L166.3,435.3L167.8,437.5L170.1,435.2L172.9,436.6L176.2,436L181.2,436.6L180.6,432.3L180.8,429.3L182.6,428.2L185.2,429.4L188,429.9L190.5,431.6L195.7,431.9L197.9,433.4L199.1,435.4L206,434.8L208.1,437.9L210.1,439.1L213,437.8L214.8,439.2L217.7,439.2L219.4,440.9Z" fill="rgba(255,255,255,0.03)" stroke="rgba(255,255,255,0.10)" stroke-width="0.5" stroke-linejoin="round"/>
  <path d="M0,0L480,0L480,520L0,520ZM76,203L75.7,204.4L73.3,206.1L74.3,209.5L72.9,210.5L76.3,212.2L77.8,211.1L79.1,211.6L81,213.5L84.8,211.4L85.6,214.8L85.3,217L83.3,217.6L83.4,218.9L89,220.6L91.3,223.9L89.7,224.7L88.6,227.6L85.3,230.5L85.6,234L88.3,236.1L92.1,240.3L94.9,244.4L96.3,250.1L101.1,252.9L101.6,253.7L106.2,254.7L107.8,257.7L111.4,257.6L116,261.3L118,258.8L120.8,259.2L123,257.3L124.4,257.6L126.2,259.5L130,258.2L132,260L133.7,258.9L135.3,259.4L136.9,257.2L139.1,256L135.8,253.7L136.8,252.6L135.6,249.2L137,248.8L136.6,244.4L135.2,240.6L132.9,237.4L133.6,234.8L131.6,234.1L130,231.8L129.6,229.5L127.9,227.4L131,225.7L131.8,226.4L136.1,226.1L138.4,225.1L138.6,223L140.8,222L143.6,222.8L144.4,221.8L147.8,221L150.5,221.4L151.3,222.7L153.8,222.9L154.3,221.2L156,220L159.2,216L160,211.9L161.8,209.7L163.3,205.4L163.2,204L164.5,201.6L163.8,199.7L164.9,196.5L167.8,197L169.7,198.3L172.2,194.9L176.8,193.2L177.6,189.5L181,187L182.6,184.8L182.1,182L185,179.9L184,177.8L183.4,173.6L184.7,173.6L185,170.7L183.2,167.6L181.2,167.9L179.4,164.7L175.5,165.2L172.4,162.3L169.6,160.9L168.7,154.8L166.9,153.8L164.1,154.1L161.9,155.1L160.5,157.2L157.9,158.7L155.3,158.3L155.5,155.1L152.6,155.1L152.5,151.5L150.3,149.8L148.4,151.9L146.8,151.7L145.7,153.2L143.2,152.1L140.7,152.4L139.4,154L134.5,154.3L132.6,155.8L132,154.4L129.8,152.8L128.2,152.9L126.6,152L124.7,153.2L122.9,151.9L122.1,155.8L123,158.4L123.3,161L121.4,164L122.2,167.2L123,172.6L123.9,173.7L123.8,177.3L121,177.5L119.4,178.7L118.3,183.5L116.3,187.8L112.4,186.7L111.7,185.3L109.3,184.9L108.9,186.5L104,188.2L102.4,190.7L99,191.3L96,190.9L90.2,192.5L88.2,194.4L88,199.1L83.2,200.9L81.5,199.9L80.9,202.3ZM0,0L480,0L480,520L0,520ZM84,227.5L82.7,225.9L83.4,224.7L81.4,223.6L80.6,225.5L81.8,226.9Z" fill="rgba(255,255,255,0.03)" stroke="rgba(255,255,255,0.10)" stroke-width="0.5" stroke-linejoin="round"/>
  <path d="M0,0L480,0L480,520L0,520ZM398.3,330L399.5,328.2L402.7,328.3L399.6,323.3L399.6,320.8L396.8,319.9L394.6,320.7L392.4,319.6L390.3,317.6L390.6,315.2L389.7,313L387.3,313.1L386.7,310.6L384.9,308.3L380.4,310.2L380.7,311.8L377.6,311.8L375.4,309.1L371.7,310L371.2,314.7L372.9,315.4L374.7,314.8L375.5,317.3L376.8,317.8L377,322.1L375.2,321.2L373.4,322.4L369.3,322.1L367.2,324.4L365.9,323.7L363.2,325.5L364.3,326.6L362.3,328.2L360,328.4L358.5,330.7L358.2,333.3L355.9,334.1L353.4,333.6L353.4,335.8L351.9,339.2L353,339.5L352.4,342.9L348,342L346.6,344.9L347,348.1L349,349.4L353.4,349.4L354.6,352.2L355.6,352L356.2,356L354.7,357.4L352.4,356.5L351.4,359.3L349.8,360.3L347.7,358.8L345.7,358.3L345.7,356.3L341,355.2L340.5,356.1L337.3,355.2L338,351.6L335.6,353.2L334,351.9L329.3,354.5L327.8,354.6L325.6,356.1L325.1,353.2L324.2,351.9L319.6,351.7L319.8,354.9L322.6,358.5L322.3,362.6L324,363.3L327.3,366.9L326.5,369L324.3,370.9L322.4,373.4L320.7,374.3L321.2,378.4L319.5,383.2L317.4,382.3L315.7,382.8L313.8,386.8L313,389.8L307.5,393L307.3,395L312.9,395.1L315.6,394.7L318.5,394.9L319.8,395.7L320.1,399.2L322.8,399.7L326.3,399.3L329.2,400.1L330.3,398.5L330,396.4L332.2,394.8L333.5,395.1L335.7,399.2L337.2,399.6L342.9,399.3L345.8,397.5L347.7,399.1L347.3,401.3L348.5,402.8L348.4,404.9L354.2,404.3L356.7,406.4L358.5,405.1L360.2,407.1L363.4,407.6L364.4,410.1L366.4,411.4L367.6,408.1L371.4,408.3L373.2,409.4L376.8,409L378.4,407.1L380.5,406.7L384.1,408L384.2,405.6L387.6,404.4L388.7,404.6L390.9,402.5L393.8,403L394.4,401.1L394.7,397.8L391.3,398.2L395.7,394.3L396.1,391.5L400.3,390.9L402.5,388.9L402.9,385.4L403.9,383.9L406.4,383.9L407.8,382.4L409.2,382.8L409.2,379.9L410.3,377.9L412.4,377.6L413,376L415.6,375.7L416.8,374.1L418.4,374.1L419.2,372.5L422.5,370.3L420.9,366.7L423.1,364.7L423.1,362.6L425.2,361.4L426.4,359.6L427.6,355.4L425.7,353L424,352.4L420,353L418.5,354.1L414.9,354.9L414.3,353.5L412.2,354L404.4,350.1L402.2,350.2L401.6,348.1L400.1,347.4L397.7,343.7L397.4,341.6L398.8,340.5L396.6,338.6L395.7,336.1L398.1,334L398.9,331.3ZM338.5,390.5L339.7,393.1L341.7,391.4L342.6,393.2L339.6,396L336.7,395.8L336.4,393.1L334.7,392.9L334.8,390.2ZM0,0L480,0L480,520L0,520ZM328,349.5L328.1,352.4L331.2,352.6L334.2,348.5L332.2,347.8L331.1,346.4L328.8,347.3Z" fill="rgba(255,255,255,0.03)" stroke="rgba(255,255,255,0.10)" stroke-width="0.5" stroke-linejoin="round"/>

  <!-- Nouvelle-Aquitaine découpée par département -->
  <path d="M0,0L480,0L480,520L0,520ZM153.7,276.4L154.2,277.6L152.8,278.5L152.7,280.9L153.4,281.3L152.3,282.7L152.6,283.8L152.2,285.2L150.7,285.2L149.6,285.7L148.9,284.4L147.4,284.4L146.7,285.3L143.5,285.3L143.5,286.1L141.9,286.5L143,287.5L142.9,289.3L143.3,291.7L142.4,293.2L143.8,293.3L147.1,296.2L146.2,297.6L148.5,298.3L148.1,300.7L147.5,301.2L148.7,302.5L148.4,304.1L146.5,305.3L147.9,306.2L147.3,307.7L148.1,309L149.3,308L151.8,308.8L153.3,310L153.3,311.7L155.8,311.7L157.3,312.6L157.4,314.4L159,312.7L160.6,312.6L161.7,313.6L164.2,310.9L164.8,309.6L166.5,308.9L165.7,305.7L166.6,303L167.5,301.7L168.3,301.8L172,299.3L172.9,298L174.5,296.6L174.8,295L174.4,293.8L176.8,292.4L178.7,288.8L180.7,286.5L181.6,286.4L181.3,284.8L182.6,284.4L184.4,282.8L185.3,280.5L184.8,278.1L187,278.6L188.5,277.8L189.2,276.2L188.3,274.9L188.6,274.2L187.2,273.2L186.1,273.1L184.8,272.1L185.5,270.1L185.1,268.5L182.4,268L180.5,268.8L180.5,270.1L175.6,270.6L174.7,269.2L173.2,268.5L172.2,269.9L173.4,270.7L173.1,271.9L171.2,272.5L170.4,271.6L167.3,272L166.4,271.8L164.6,270.3L163.9,270.2L163.2,270.8L161.8,269.8L159.9,270.3L157.9,272.3L156.1,272.2L156.4,273.4L155.7,274L155.7,275.4Z" fill="rgba(255,255,255,0.09)" stroke="rgba(255,255,255,0.28)" stroke-width="0.7" stroke-linejoin="round"/>
  <path d="M0,0L480,0L480,520L0,520ZM107.2,264.2L107.2,262.4L106.1,261.8L104.5,262.8L105.3,264.5L106.4,265L107.8,264.6L110.2,265.9L111.4,267L113.1,267.6L114.1,266.8L113.5,265.4L112.5,265.4L111.4,264.5L109,264.5L109.5,263.3L108,263.3ZM0,0L480,0L480,520L0,520ZM131.9,259.9L130,258.2L126.2,259.5L124.4,257.6L123,257.3L121.7,258L120.8,259.2L119.1,259.5L119.7,261.9L117.5,263.8L115.8,266.5L116.4,267.5L117.6,267.8L119.9,270.1L120.3,272L121.1,272.3L121.5,274.1L120,275.4L121.1,277.1L120.7,278.9L119.1,281.7L117.6,281.9L118.7,284.2L116.9,284.8L116,284.6L114.9,285.3L115,288.9L117.6,290.5L119.1,291.9L121.6,293.4L122.4,293.2L123.3,294.4L122.1,295.5L125.5,299.3L128.4,302.4L130.7,305.6L131.4,307.9L132.4,307.7L136.8,308L137.6,309.1L139.7,309.6L140.6,309.3L142.6,310.1L143.2,311.7L142.8,313.7L143.8,316.4L144.7,315.4L147.7,316.8L148.7,318.4L152.3,319.4L153.8,317.8L155,318.9L155.8,318.8L156.2,317.4L157.3,316.3L156.6,315.5L157.4,314.4L157.3,312.6L155.8,311.7L153.3,311.7L153.3,310L151.8,308.8L149.3,308L148.1,309L147.3,307.7L147.9,306.2L146.5,305.3L148.4,304.1L148.7,302.5L147.5,301.2L148.1,300.7L148.5,298.3L146.2,297.6L147.1,296.2L143.8,293.3L142.4,293.2L143.3,291.7L142.9,289.3L143,287.5L141.9,286.5L143.5,286.1L143.5,285.3L146.7,285.3L147.4,284.4L148.9,284.4L149.6,285.7L150.7,285.2L152.2,285.2L152.6,283.8L152.3,282.7L153.4,281.3L152.7,280.9L152.8,278.5L154.2,277.6L153.7,276.4L152.6,275.5L150,272.8L148,272.1L147.7,271.1L145.1,270.8L139.9,269.5L139.8,268.7L138.5,267.8L136,267.9L134.1,265L133.9,264.1L131.8,262.8L132.4,261.8ZM0,0L480,0L480,520L0,520ZM114.7,282.1L115.1,284.1L116.5,282.9L116.1,281.9L116.8,280.1L115.3,278.2L115.4,276L114.9,275.1L112.4,274.7L111.9,273.9L109.3,272.2L110.2,274.6L110.1,276.6L111.6,278.5L113.3,279.4L114.4,281Z" fill="rgba(255,255,255,0.09)" stroke="rgba(255,255,255,0.28)" stroke-width="0.7" stroke-linejoin="round"/>
  <path d="M0,0L480,0L480,520L0,520ZM222,288.9L221,290.6L219.5,290.5L218.1,289.7L217.8,290.9L216.2,291.9L215.5,291.8L213.9,293.5L213.8,294.2L211.3,296.1L208.3,296.4L206.8,296.3L206.8,297.4L205.3,297.6L204.8,299.1L203.4,300.4L201.3,299.5L200.1,301.7L200.3,303.8L202.7,304.8L202.3,305.7L199.8,308.7L199.4,310.1L201,311.8L199.6,312.6L199.6,313.8L201,313.5L201.7,314.3L200.4,315.7L201.8,316.6L202.8,316.4L205.9,317.2L204.9,318.3L205.5,320.3L207.2,322.3L210.3,321L214.1,321.8L216,323.7L216.3,324.7L217.7,325.2L218.6,326.8L220.3,326.6L222.4,325L223.3,324L224.7,325.2L225.8,324.1L227.9,323.6L230.8,323.5L231.2,322.7L229.5,320.1L231.6,318.5L232.6,317.1L232.3,316.1L233.3,315.7L232.7,311.9L234.3,310.5L235.2,308.5L235.8,308.6L236.8,306.8L237.9,306.5L238.5,303.7L239.4,302.9L242.5,303.9L243.7,303.5L242.5,301.9L243,299.7L243.2,295.3L242.7,295.3L241.3,293.3L241.9,292.6L242,291.2L243.1,291.2L242.9,289.6L243.5,289.1L242.1,286.4L240.3,288.3L237.8,287.7L236.4,289.9L234.6,290.2L234.7,288.9L232.1,288.3L231.3,287L229.2,287.4L226.9,285.5L225.4,286.3L225.3,287.1L222.7,288.1Z" fill="rgba(255,255,255,0.09)" stroke="rgba(255,255,255,0.28)" stroke-width="0.7" stroke-linejoin="round"/>
  <path d="M0,0L480,0L480,520L0,520ZM242.1,286.4L240.1,285L240,284.1L238.4,282.1L239.9,281.7L240.4,280.2L241.9,280.2L243.1,278.4L244.4,275.5L245.7,275.1L245.2,274L245.4,271.8L244.3,271.1L243.6,269.3L243.4,268L244,266.5L243.7,265.1L242.6,264.2L242.1,262L241.2,261.5L240.8,259.9L237.8,257.6L236,258L234.8,256.5L233.9,253.4L232.9,253L227,253.5L224.3,253L223.9,252.6L221.9,253L218.7,253.3L217.7,252L216.2,252.2L216.4,253.4L215.4,255.2L213.9,253.9L212.6,255.3L210.9,254.4L209.3,255.2L208.4,253.6L207.7,255L204.9,257.5L205.9,258.1L205.8,259.1L204.4,262.8L203.6,264L205.1,265.9L206.1,265.7L206.5,267L207.7,268.6L208.2,270.1L209.5,270.7L209.1,271.6L209.7,272.6L209.2,273.9L210.4,274.6L210.4,276.2L208.4,277.3L209.9,278.5L210.8,277.7L212.5,277.7L213,279.6L211.7,280.1L211.7,281.3L214.2,282.4L216.9,281.3L217.6,282.4L219.9,282.9L221.2,284L221.8,285.9L221,287.5L222,288.9L222.7,288.1L225.3,287.1L225.4,286.3L226.9,285.5L229.2,287.4L231.3,287L232.1,288.3L234.7,288.9L234.6,290.2L236.4,289.9L237.8,287.7L240.3,288.3Z" fill="rgba(255,255,255,0.09)" stroke="rgba(255,255,255,0.28)" stroke-width="0.7" stroke-linejoin="round"/>
  <path d="M0,0L480,0L480,520L0,520ZM178.7,288.8L176.8,292.4L174.4,293.8L174.8,295L174.5,296.6L172.9,298L172,299.3L168.3,301.8L167.5,301.7L166.6,303L165.7,305.7L166.5,308.9L164.8,309.6L164.2,310.9L161.7,313.6L160.6,312.6L159,312.7L157.4,314.4L156.6,315.5L157.3,316.3L156.2,317.4L155.8,318.8L157.1,317.9L158.7,318.1L159.7,320.4L158.7,322L158.6,324.1L157.8,324.7L157.3,326.3L158.4,327.9L156.8,330.7L158,331.1L158.8,332.3L160.9,331.9L163.9,332.5L164.6,331.4L166,330.2L166.9,330.2L168.1,331.3L166.3,332.2L166.6,334.2L167.5,335.3L169.3,337.4L169.7,338.8L169.6,340.6L171.6,341L174.2,340L174.9,339.4L176,340L177,339.5L177.5,338.4L180.1,339.3L182.6,339.5L184.9,338.2L185.9,338.6L186.7,339.9L185.6,341.8L187,343.2L189.8,341.2L191.2,340.9L192.4,342.4L194.5,343.2L194.6,344.1L197.3,341.1L197.1,339.6L198.2,338.9L199.7,338.8L200.6,337.7L202.3,336.8L203.1,334.8L202.2,334.4L202.3,333.2L204.5,332.5L204.3,331.4L205.8,330.6L207,329.4L206.3,328.2L207.1,327.4L205.9,323L207.2,322.3L205.5,320.3L204.9,318.3L205.9,317.2L202.8,316.4L201.8,316.6L200.4,315.7L201.7,314.3L201,313.5L199.6,313.8L199.6,312.6L201,311.8L199.4,310.1L199.8,308.7L202.3,305.7L202.7,304.8L200.3,303.8L200.1,301.7L198.6,300.8L197.8,301.2L196.9,300.1L195.5,299.9L196,298.8L197.1,297.8L195.8,296.9L194.2,297.3L193,296.3L192.2,293.7L190.6,294.1L189.3,293.7L187.9,294.3L186.6,293.7L186,295.2L184.7,294.5L183.7,294.7L182.9,293.5L183.7,291L182.5,289.9L180,290.2Z" fill="rgba(255,255,255,0.09)" stroke="rgba(255,255,255,0.28)" stroke-width="0.7" stroke-linejoin="round"/>
  <path d="M0,0L480,0L480,520L0,520ZM122.1,295.5L120.9,295.6L118.2,298.7L117.6,300.5L117.8,301.9L117.4,303.4L117.3,308.8L116.6,314.8L115.5,325.3L114.9,330.1L113.4,340.6L114.9,337.6L116.5,335.6L116.9,334.4L120.7,337.9L121.9,340.6L119.6,341.1L117.6,340.7L116.8,339.9L115.8,340L114.7,343.8L113.4,345.5L113.5,349.4L118.7,347.8L119.4,346.3L121.4,347.6L122.7,347.4L123,348.8L122.1,351L123.4,351.4L125.1,350.8L127.7,352L128.9,351.9L130,351L131.7,350.7L133,351L133.6,350.2L135.3,350.9L135.1,353L138.8,354.7L139.1,356L140.5,356.7L142.1,356.8L142.2,357.7L143.8,358.6L143.3,361L143.6,362.3L146.3,362.7L147.7,363.1L149.4,362.5L149.3,359.7L151,359.8L152.3,361.5L153.8,361.2L156.1,359.3L156,358.1L154.2,356.1L154.5,355.3L156.2,355L158,354.2L157.1,352.7L156.7,347.9L158.5,345.5L159.7,345.6L160.2,344L161.1,343.8L162.6,342.5L163.4,340L161.8,339.9L160.8,339.1L161.8,338.2L162,336.8L163.6,336L164.5,336.4L167.5,335.3L166.6,334.2L166.3,332.2L168.1,331.3L166.9,330.2L166,330.2L164.6,331.4L163.9,332.5L160.9,331.9L158.8,332.3L158,331.1L156.8,330.7L158.4,327.9L157.3,326.3L157.8,324.7L158.6,324.1L158.7,322L159.7,320.4L158.7,318.1L157.1,317.9L155.8,318.8L155,318.9L153.8,317.8L152.3,319.4L148.7,318.4L147.7,316.8L144.7,315.4L143.8,316.4L142.8,313.7L143.2,311.7L142.6,310.1L140.6,309.3L139.7,309.6L137.6,309.1L136.8,308L132.4,307.7L131.4,307.9L130.7,305.6L128.4,302.4L125.5,299.3Z" fill="rgba(255,255,255,0.09)" stroke="rgba(255,255,255,0.28)" stroke-width="0.7" stroke-linejoin="round"/>
  <path d="M0,0L480,0L480,520L0,520ZM148.6,392.9L148.5,391.4L147.4,391.4L147.3,390L148.6,389.5L148.1,388.1L148.3,386.9L150.3,385.4L149.4,382.9L150.3,382L150.2,379.3L150.5,378.4L149.5,377.1L151,375.7L152.5,375.6L153.6,376.2L155.6,374.5L155.9,373.4L157.3,374.6L156.5,376L158.3,377.5L159.6,377.3L159.2,375.1L159.9,373.4L159.4,372.6L160.8,368.3L162,367.2L161.9,366.5L158.4,366.2L157.1,365.3L154.3,365L152.7,365.2L152.7,362.6L152.3,361.5L151,359.8L149.3,359.7L149.4,362.5L147.7,363.1L146.3,362.7L143.6,362.3L143.3,361L143.8,358.6L142.2,357.7L142.1,356.8L140.5,356.7L139.1,356L138.8,354.7L135.1,353L135.3,350.9L133.6,350.2L133,351L131.7,350.7L130,351L128.9,351.9L127.7,352L125.1,350.8L123.4,351.4L122.1,351L123,348.8L122.7,347.4L121.4,347.6L119.4,346.3L118.7,347.8L113.5,349.4L112.6,356.6L111.1,365.9L108.9,375.8L107.1,383.2L106,389.6L104.4,393L103.2,395.1L104.5,394.8L106.5,395.9L106.9,396.7L108.7,396.9L110.2,396.4L111.5,396.7L114.1,395.2L115.7,394.5L117.9,396.1L120.1,396.1L122,396.6L122.1,394.8L123.5,395.3L125.1,394.4L126.9,394.8L128.2,393.9L129.5,393.8L130,393L132,394.9L133.2,394L136.1,394.9L137.5,394.9L141.3,392.3L141.2,394.5L142.8,393.7L144.7,394L145.2,394.5L146.9,393.7L147.2,392.8Z" fill="rgba(255,255,255,0.09)" stroke="rgba(255,255,255,0.28)" stroke-width="0.7" stroke-linejoin="round"/>
  <path d="M0,0L480,0L480,520L0,520ZM167.5,335.3L164.5,336.4L163.6,336L162,336.8L161.8,338.2L160.8,339.1L161.8,339.9L163.4,340L162.6,342.5L161.1,343.8L160.2,344L159.7,345.6L158.5,345.5L156.7,347.9L157.1,352.7L158,354.2L156.2,355L154.5,355.3L154.2,356.1L156,358.1L156.1,359.3L153.8,361.2L152.3,361.5L152.7,362.6L152.7,365.2L154.3,365L157.1,365.3L158.4,366.2L161.9,366.5L162,367.2L160.8,368.3L159.4,372.6L159.9,373.4L163.1,372.8L164.7,371.5L165.4,372.2L167.9,372.9L168.2,372.3L172.7,371.2L173.3,369.9L176.7,369.9L177.4,368.8L178.3,368.7L180.5,371.3L182.1,369.6L183.1,369.5L183.8,367.2L184.8,367L185.9,365.4L187.6,366.3L188.4,364.9L187.1,363.9L187.4,363L188.9,362.8L189.4,360.8L190.5,359L189.2,357.7L187.7,357.1L188.5,355.5L188.2,354.5L189.3,353.6L190.4,354.7L193.9,354.7L194.4,353.8L194,351.3L193.1,351.2L193,349.6L192.4,348.9L192.6,347.7L192.4,345.7L194.6,344.1L194.5,343.2L192.4,342.4L191.2,340.9L189.8,341.2L187,343.2L185.6,341.8L186.7,339.9L185.9,338.6L184.9,338.2L182.6,339.5L180.1,339.3L177.5,338.4L177,339.5L176,340L174.9,339.4L174.2,340L171.6,341L169.6,340.6L169.7,338.8L169.3,337.4Z" fill="rgba(255,255,255,0.09)" stroke="rgba(255,255,255,0.28)" stroke-width="0.7" stroke-linejoin="round"/>
  <path d="M0,0L480,0L480,520L0,520ZM148.6,392.9L147.2,392.8L146.9,393.7L145.2,394.5L144.7,394L142.8,393.7L141.2,394.5L141.3,392.3L137.5,394.9L136.1,394.9L133.2,394L132,394.9L130,393L129.5,393.8L128.2,393.9L126.9,394.8L125.1,394.4L123.5,395.3L122.1,394.8L122,396.6L120.1,396.1L117.9,396.1L115.7,394.5L114.1,395.2L111.5,396.7L110.2,396.4L108.7,396.9L106.9,396.7L106.5,395.9L104.5,394.8L103.2,395.1L100.6,399.4L99.4,400.7L95.4,402.2L93.5,402.6L93.6,403.4L94.9,404.5L95.6,406.4L97.8,405.5L99.5,406.2L99.2,407L99.9,408.6L101.1,408.7L101.8,407.3L102.7,406.6L106,408L106.9,407.7L108,408.7L108.1,409.8L107.2,412.4L106.7,414.8L104.9,416.2L104.6,417L105.7,418.8L108.8,419.7L109.2,418.4L109.2,416.5L110.1,415.6L110.8,416.6L110.4,417.7L112.6,419.1L113.2,418.4L115,419.6L117.4,420.2L118.9,421.3L120.8,421.5L121.4,422.3L123.3,423.6L128.2,423.7L130.3,423L131.3,425.2L131.3,426.8L133,427.1L133.7,428.3L135.5,429.6L136,431.1L138.2,431.6L138.9,430L141.3,431.4L144,430.6L144.8,429.4L145.7,429.4L146.2,427.8L145.5,426.1L147.2,424.5L146.7,421.8L147.9,420.8L148,419.6L149.2,419.8L150.4,418.9L150.1,418.2L151,416.1L152,415.2L153,412.7L154.8,412.8L154.6,410.5L155.6,410.1L156.6,408.3L155.6,406.8L156.3,405.4L157.6,405.6L158.3,404.6L157.1,403.3L157.5,400.8L156.6,399.9L155.6,401.5L154.7,400.3L155.1,398.8L156.1,398.7L155.8,396.4L154.9,394.8L154.1,394.2L153.8,393L151.4,393L150.9,392.3ZM153.5,404L155,404.5L154.5,406.5ZM153.5,409.6L152.9,409.7L152.3,407.8L153.2,406.3L154.4,408.6Z" fill="rgba(255,255,255,0.09)" stroke="rgba(255,255,255,0.28)" stroke-width="0.7" stroke-linejoin="round"/>
  <path d="M0,0L480,0L480,520L0,520ZM153.8,222.9L151.3,222.7L152.1,221.2L150.5,221.4L147.8,221L145.9,221.8L144.4,221.8L143.6,222.8L140.8,222L138.6,223L138.4,225.1L136.6,226.4L136.1,226.1L131.8,226.4L131,225.7L127.9,227.4L127.8,228.5L128.9,228.7L129.6,229.5L130,231.8L131.6,234.1L133.6,234.8L132.9,237.4L134,238.5L135.2,240.6L134.4,241.3L135.8,242.5L135.4,243.3L136.6,244.4L137,248.8L135.6,249.2L136.8,252.6L135.8,253.7L136.7,254.6L139.1,256L138.3,257.3L136.9,257.2L135.3,259.4L133.7,258.9L131.9,259.9L132.4,261.8L131.8,262.8L133.9,264.1L134.1,265L136,267.9L138.5,267.8L139.8,268.7L139.9,269.5L145.1,270.8L147.7,271.1L148,272.1L150,272.8L152.6,275.5L153.7,276.4L155.7,275.4L155.7,274L156.4,273.4L156.1,272.2L157.9,272.3L159.9,270.3L161.8,269.8L163.2,270.8L163.9,270.2L164.6,267.2L163.6,267.7L162.4,267.2L161,264.8L162.1,263.7L161.6,261.9L162.6,261.9L162.4,260.4L163.2,258.9L161.8,257.9L160.7,258.6L159.8,260L157.9,258.6L157.7,257.5L158.4,256.7L157.3,255.8L156.7,251.7L155.8,252L156.2,249.3L157.5,248.2L157,247.2L157.9,246.4L157.9,245.1L156.8,244.9L156.2,242.2L156.9,241.5L157.1,240L158.5,239.2L156.3,236.4L157.4,235.4L155.7,234.8L156.8,233.6L156.3,232.2L156.9,230.6L155.7,227.7L155.9,226.6L154.2,226.3L154.3,225.1Z" fill="rgba(255,255,255,0.09)" stroke="rgba(255,255,255,0.28)" stroke-width="0.7" stroke-linejoin="round"/>
  <path d="M0,0L480,0L480,520L0,520ZM153.8,222.9L154.3,225.1L154.2,226.3L155.9,226.6L155.7,227.7L156.9,230.6L156.3,232.2L156.8,233.6L155.7,234.8L157.4,235.4L156.3,236.4L158.5,239.2L157.1,240L156.9,241.5L156.2,242.2L156.8,244.9L157.9,245.1L157.9,246.4L157,247.2L157.5,248.2L156.2,249.3L155.8,252L156.7,251.7L157.3,255.8L158.4,256.7L157.7,257.5L157.9,258.6L159.8,260L160.7,258.6L161.8,257.9L163.2,258.9L162.4,260.4L162.6,261.9L161.6,261.9L162.1,263.7L161,264.8L162.4,267.2L163.6,267.7L164.6,267.2L163.9,270.2L164.6,270.3L166.4,271.8L167.3,272L170.4,271.6L171.2,272.5L173.1,271.9L173.4,270.7L172.2,269.9L173.2,268.5L174.7,269.2L175.6,270.6L180.5,270.1L180.5,268.8L182.4,268L185.1,268.5L185.5,266L184.3,265L184.6,263.6L185.6,263.1L187.6,260.9L189.2,260.6L190.6,261L191.9,258.9L191.9,257.9L193.2,257L195.2,256.9L196.2,255.6L196.9,255.9L198,253.5L195.9,252.7L195.4,251.7L195.7,249.9L194.3,248.6L191.6,248.5L191.3,247L190.4,247.1L187.9,245.6L187.2,244.1L187.7,243.1L187.7,241.4L188.3,240.8L187.8,239.3L186.3,238.4L184.5,236.3L184.2,234.4L182.8,233.2L180.7,230.7L180.7,229.1L180.3,227.3L178.4,226.7L177.8,225.7L176.4,225.8L177.1,228.1L173.4,228.3L171.8,229.5L169.4,228.5L167.6,229.1L167.1,226.9L167.6,226.3L167.1,223.4L165.4,222.6L164.1,223.5L163,222.6L163.9,221.6L160.7,220.2L159.7,220L158.9,218L157.8,217.5L156.8,218.5L156,220L155.7,221.5L154.3,221.2Z" fill="rgba(255,255,255,0.09)" stroke="rgba(255,255,255,0.28)" stroke-width="0.7" stroke-linejoin="round"/>
  <path d="M0,0L480,0L480,520L0,520ZM185.1,268.5L185.5,270.1L184.8,272.1L186.1,273.1L187.2,273.2L188.6,274.2L188.3,274.9L189.2,276.2L188.5,277.8L187,278.6L184.8,278.1L185.3,280.5L184.4,282.8L182.6,284.4L181.3,284.8L181.6,286.4L180.7,286.5L178.7,288.8L180,290.2L182.5,289.9L183.7,291L182.9,293.5L183.7,294.7L184.7,294.5L186,295.2L186.6,293.7L187.9,294.3L189.3,293.7L190.6,294.1L192.2,293.7L193,296.3L194.2,297.3L195.8,296.9L197.1,297.8L196,298.8L195.5,299.9L196.9,300.1L197.8,301.2L198.6,300.8L200.1,301.7L201.3,299.5L203.4,300.4L204.8,299.1L205.3,297.6L206.8,297.4L206.8,296.3L208.3,296.4L211.3,296.1L213.8,294.2L213.9,293.5L215.5,291.8L216.2,291.9L217.8,290.9L218.1,289.7L219.5,290.5L221,290.6L222,288.9L221,287.5L221.8,285.9L221.2,284L219.9,282.9L217.6,282.4L216.9,281.3L214.2,282.4L211.7,281.3L211.7,280.1L213,279.6L212.5,277.7L210.8,277.7L209.9,278.5L208.4,277.3L210.4,276.2L210.4,274.6L209.2,273.9L209.7,272.6L209.1,271.6L209.5,270.7L208.2,270.1L207.7,268.6L206.5,267L206.1,265.7L205.1,265.9L203.6,264L204.4,262.8L205.8,259.1L205.9,258.1L204.9,257.5L202.9,255L201.9,255.2L201.1,256.4L199.7,256.1L198.3,256.7L197.9,255.6L196.9,255.9L196.2,255.6L195.2,256.9L193.2,257L191.9,257.9L191.9,258.9L190.6,261L189.2,260.6L187.6,260.9L185.6,263.1L184.6,263.6L184.3,265L185.5,266Z" fill="rgba(255,255,255,0.09)" stroke="rgba(255,255,255,0.28)" stroke-width="0.7" stroke-linejoin="round"/>

  <!-- Point Bordeaux -->

  <circle cx="137.1" cy="331.6" r="5" fill="#85e372"/>
  <circle cx="137.1" cy="331.6" r="10" fill="none" stroke="#85e372" stroke-width="1" opacity="0.35"/>
  <circle cx="137.1" cy="331.6" r="16" fill="none" stroke="#85e372" stroke-width="0.5" opacity="0.15"/>

</svg>