<?xml version="1.0" encoding="UTF-8"?>
<svg xmlns="http://www.w3.org/2000/svg" viewBox="0 0 1181 886" width="1181" height="886">
<metadata>
<rdf:RDF xmlns:rdf="http://www.w3.org/1999/02/22-rdf-syntax-ns#" xmlns:dc="http://purl.org/dc/elements/1.1/" xmlns:cc="http://creativecommons.org/ns#">
<cc:Work>
<dc:title>Kerelia Logo</dc:title>
<dc:creator>
<cc:Agent>
<dc:title>Kerelia</dc:title>
</cc:Agent>
</dc:creator>
<dc:rights>
<cc:Agent>
<dc:title>© Kerelia</dc:title>
</cc:Agent>
</dc:rights>
</cc:Work>
</rdf:RDF>
</metadata>
<path fill="#000" d="M 698 430 C 700 417 707 406 715 397 C 727 386 739 374 750 362 C 760 352 767 339 769 324 C 772 301 762 278 744 264 C 732 254 716 249 701 250 C 686 249 671 252 658 261 C 650 267 643 274 636 281 C 613 304 590 328 567 351 C 557 360 548 369 539 379 C 531 387 522 394 515 403 C 506 416 501 431 502 447 C 503 459 506 470 513 480 C 517 485 522 489 526 494 C 564 531 601 569 638 606 C 646 613 652 620 661 626 C 669 631 677 633 686 635 C 691 636 695 635 700 636 C 713 636 726 633 737 626 C 750 619 760 607 765 593 C 774 571 770 545 755 528 C 747 519 739 512 731 504 C 724 497 717 490 711 482 C 699 468 694 448 698 430 Z M 463 254 C 450 257 439 264 431 274 C 424 283 420 294 419 306 C 419 318 423 331 430 341 C 439 353 452 361 466 363 C 477 365 489 364 500 359 C 512 353 522 342 528 330 C 533 318 533 305 530 293 C 526 281 519 270 508 263 C 495 253 478 250 463 254 Z M 419 341 C 419 419 419 497 419 575 C 419 582 419 589 421 596 C 424 612 435 626 450 633 C 469 643 494 641 511 627 C 522 619 530 606 532 592 C 533 583 532 575 530 567 C 527 558 522 549 515 543 C 498 525 481 508 464 491 C 458 485 453 480 449 473 C 444 463 442 453 442 442 C 443 431 448 420 455 411 C 457 408 460 405 462 402 C 473 392 484 381 495 370 C 486 373 477 373 468 372 C 448 370 429 358 419 341 Z"/>
</svg>

